<svg width="22" height="23" viewBox="0 0 22 23" fill="none" xmlns="http://www.w3.org/2000/svg">
<path d="M11.3196 1.51123C14.6074 1.67765 17.2219 4.39686 17.2219 7.72607L17.2141 8.04541C17.0998 10.3043 15.7801 12.2441 13.886 13.2378C17.2991 14.4303 19.7481 17.6767 19.7483 21.4966H18.5481C18.5479 17.3281 15.1687 13.9479 11.0002 13.9478C6.83165 13.9478 3.45165 17.328 3.45142 21.4966H2.2522C2.25238 17.677 4.70083 14.4305 8.11353 13.2378C6.21957 12.244 4.89973 10.3042 4.7854 8.04541L4.77759 7.72607C4.77759 4.28969 7.56388 1.50352 11.0002 1.50342L11.3196 1.51123ZM11.0002 2.70361C8.22662 2.70371 5.97778 4.95243 5.97778 7.72607C5.97801 10.4995 8.22676 12.7475 11.0002 12.7476C13.7736 12.7473 16.0215 10.4994 16.0217 7.72607C16.0217 4.95251 13.7738 2.70384 11.0002 2.70361Z" fill="#221D1D"/>
</svg>
