<svg width="24" height="24" viewBox="0 0 24 24" fill="none" xmlns="http://www.w3.org/2000/svg">
<path d="M12.4591 22.3096C12.2922 22.3096 12.1357 22.2783 12 22.2052C10.5704 21.4539 9.25566 20.6087 8.07653 19.68C6.02088 18.0626 4.46609 16.2678 3.43305 14.3478C2.55653 12.6887 2.08696 10.9357 2.03479 9.15131V9.03653C2.03479 8.69218 2.06609 7.99305 2.30609 7.14783C2.64001 5.97913 3.22436 5.0087 4.03827 4.24696C4.75827 3.58957 5.66609 3.10957 6.66783 2.85913C8.43131 2.42087 10.2261 2.79653 11.5096 3.90261C11.6348 4.00696 11.8017 4.19479 12.0104 4.45566L12.0626 4.51827L12.4383 5.01913L12.5322 5.12348L12.6157 5.0087C12.7096 4.87305 12.8557 4.65392 13.0226 4.43479C13.2209 4.17392 13.3878 3.99653 13.5131 3.89218H13.5235C14.6504 2.82783 16.6644 2.42087 18.3548 2.8487C19.3983 3.13044 20.2748 3.58957 20.9844 4.23653C21.5687 4.7687 22.0278 5.42609 22.3722 6.18783C22.9774 7.55479 22.9774 8.74435 22.9357 9.04696C22.8835 10.9565 22.32 12.7722 21.2452 14.5252C20.4209 15.9026 19.2731 17.28 17.8435 18.6052C15.6731 20.5983 13.5652 21.8504 13.0957 22.1217L12.9704 22.1948C12.8244 22.2678 12.6678 22.3096 12.4904 22.3096H12.4591ZM8.10783 3.92348C7.71131 3.92348 7.34609 3.96522 6.96001 4.06957C6.15653 4.26783 5.43653 4.64348 4.88349 5.16522C4.24696 5.76 3.7774 6.54261 3.50609 7.48174C3.30783 8.18087 3.27653 8.75479 3.27653 9.03653C3.31827 10.7165 3.74609 12.2817 4.5287 13.7635C5.47827 15.527 6.9287 17.1965 8.83827 18.7096C9.93392 19.5652 11.1548 20.3478 12.4487 21.0365C12.8974 20.7757 14.9009 19.5861 16.9565 17.687C18.3026 16.4452 19.3774 15.1617 20.1391 13.8887C21.0991 12.3026 21.6104 10.7061 21.6522 9.10957V8.90087C21.6835 8.71305 21.673 7.77392 21.193 6.6887C20.9217 6.08348 20.5565 5.57218 20.1078 5.15479C19.5548 4.65392 18.8557 4.27827 18.0104 4.05913C16.7374 3.73566 15.1826 4.0174 14.3374 4.8L14.2748 4.85218C14.2748 4.85218 14.1496 4.96696 13.9931 5.18609C13.847 5.37392 13.7113 5.57218 13.6383 5.68696C13.3878 6.06261 12.9809 6.28174 12.5322 6.29218C12.3131 6.31305 12.0939 6.25044 11.8957 6.14609C11.8957 6.14609 11.5409 5.90609 11.4052 5.7287C11.2696 5.55131 11.1652 5.40522 11.0191 5.2174C10.8835 5.04 10.7583 4.89392 10.6748 4.83131C9.96522 4.22609 9.09914 3.91305 8.0974 3.91305L8.10783 3.92348Z" fill="#221D1D"/>
</svg>
