<svg width="296" height="23" viewBox="0 0 296 23" fill="none" xmlns="http://www.w3.org/2000/svg">
<path d="M2.99264 2.74486C2.2919 1.01819 1.54858 0.615562 0 0.615562V0.15873H6.68213V0.588462C5.5207 0.642662 5.13355 0.832363 5.13355 1.2892C5.13355 1.93573 5.43165 2.41966 11.8428 19.3418L18.1571 3.4185C18.4586 2.75106 18.6595 2.04263 18.7533 1.3163C18.7533 0.615562 17.8629 0.642662 17.2048 0.588462V0.15873H22.8416L22.7874 0.615562C21.0917 0.751063 20.6039 1.15369 19.9574 2.74486L11.7228 22.3344C11.5602 22.7216 11.4285 22.8455 11.2892 22.8455C11.1498 22.8455 10.9678 22.6829 10.8594 22.4157L2.99264 2.74486ZM32.7216 22.5783H26.0394V22.1176H26.1478C27.9519 22.1176 27.979 20.933 27.979 18.5598V6.2253C27.979 3.8792 27.6809 3.51528 25.9581 3.42237V2.98877H32.1021V3.48431C30.1896 3.48431 30.1664 3.96824 30.1664 7.04218V18.583C30.1664 21.4672 30.3251 22.1138 32.7254 22.1138V22.5977L32.7216 22.5783ZM53.4687 18.9972C52.4737 21.2891 50.2089 22.8687 46.6511 22.8687C40.5071 22.8687 36.7363 18.6411 36.7363 12.8029C36.7363 7.35964 40.5613 2.67131 47.0034 2.67131C48.985 2.68917 50.9438 3.09697 52.768 3.87146C53.0661 3.97986 53.1551 4.06116 53.1551 4.32829L52.9654 8.26169H52.5357C52.5086 7.15833 52.2647 5.83816 51.4013 5.13742C50.2167 4.16956 48.8423 3.65466 46.5775 3.65466C41.3781 3.65466 39.0591 7.58806 39.0591 12.3035C39.0591 17.0189 41.5911 21.866 46.8988 21.866C49.8915 21.866 51.8582 20.7355 52.8802 18.823C53.097 18.3933 53.1745 18.3391 53.4184 18.3933C53.6623 18.4475 53.6545 18.583 53.4687 18.9972ZM73.8132 6.2795H73.3564C73.1938 4.76964 73.0854 4.2315 70.6889 4.2315H66.9452V18.7301C66.9452 21.7731 67.2704 22.0983 69.4501 22.0983V22.5822H62.7679V22.1215C64.4404 22.1215 64.6533 21.3472 64.6533 19.2915V4.2315H61.4439C58.8578 4.2315 58.2925 4.3128 58.2112 6.2795H57.7273L57.6189 2.99264C57.6189 2.99264 60.2592 3.15524 61.4168 3.15524H70.3211C71.5087 3.18158 72.6969 3.13633 73.879 3.01974L73.9061 3.04684L73.8132 6.2795ZM87.0729 22.8919C80.0385 22.8919 77.1039 17.3945 77.1039 12.7642C77.1039 8.61399 80.1198 2.69841 87.2355 2.69841C93.0427 2.69841 97.34 6.3337 97.34 12.3422C97.3362 18.1223 93.3021 22.8919 87.0729 22.8919ZM87.0458 3.57336C82.764 3.57336 79.5275 6.40339 79.5275 12.0596C79.5275 18.041 83.1395 21.8931 87.7737 21.8931C90.0965 21.8931 94.8855 20.5729 94.8855 13.0855C94.8855 6.91442 91.1147 3.57336 87.0458 3.57336ZM119.055 22.5783H116.817C114.107 22.5783 113.128 20.7471 111.672 18.4281C110.433 16.4924 109.167 13.7398 107.441 13.6314L106.256 13.5501C106.121 13.5501 106.066 13.5772 106.066 13.794V18.8579C106.066 21.9008 106.604 22.0905 108.625 22.0905V22.5745H102.044V22.1138C103.592 22.0325 103.929 21.8466 103.929 18.8811V5.30003C103.929 3.89856 103.093 3.52303 101.664 3.52303V3.03909H108.455C112.117 3.03909 114.599 4.68446 114.599 7.83583C114.599 10.3949 112.497 12.5513 110.236 13.3062C112.172 14.034 113.767 18.4514 115.381 20.1471C116.995 21.8428 117.669 22.0828 119.047 22.0828V22.5745L119.055 22.5783ZM108.575 12.8997C110.948 12.8997 112.427 11.1227 112.427 8.40106C112.427 5.51683 110.677 3.87533 107.983 3.87533C106.527 3.87533 106.07 3.90243 106.07 4.33216V12.3074C106.07 12.5745 106.097 12.6558 106.527 12.7642C107.207 12.8465 107.89 12.8943 108.575 12.9074V12.8997ZM129.829 22.5783H123.147V22.1176H123.256C125.06 22.1176 125.091 20.933 125.091 18.5598V6.2253C125.091 3.8792 124.793 3.51528 123.07 3.42237V2.98877H129.214V3.48431C127.301 3.48431 127.278 3.96824 127.278 7.04218V18.583C127.278 21.4672 127.437 22.1138 129.837 22.1138V22.5977L129.829 22.5783ZM146.608 22.1215C147.58 22.0673 147.955 21.8544 147.955 21.475C147.954 21.0983 147.861 20.7276 147.684 20.3948L145.636 15.0058C145.62 14.9552 145.587 14.9116 145.543 14.882C145.499 14.8525 145.446 14.8388 145.393 14.8432H139.868C139.806 14.8442 139.745 14.8661 139.697 14.9054C139.649 14.9447 139.615 14.9992 139.601 15.06L138.211 19.2102C137.948 19.8793 137.771 20.5792 137.685 21.293C137.685 21.8582 138.223 22.0673 139.276 22.1022V22.5861H133.619L133.701 22.1254C135.396 21.9899 135.911 21.3511 136.504 19.756L142.431 3.6082C142.752 2.74486 142.818 2.69066 142.969 2.69066C143.12 2.69066 143.209 2.79906 143.534 3.6082L149.705 19.5315C150.298 21.0801 150.944 22.0634 152.694 22.0634L152.775 22.5745H146.604V22.1215H146.608ZM145.18 13.8521V13.825L142.729 6.79441C142.675 6.63181 142.621 6.50018 142.539 6.50018C142.458 6.50018 142.404 6.60858 142.35 6.79441L140.062 13.763C140.062 13.7901 140.034 13.8172 140.034 13.8443C140.034 13.8714 140.085 13.9256 140.143 13.9256H145.102C145.153 13.9063 145.18 13.9063 145.18 13.8521ZM153.035 5.7104C153.739 5.64459 154.084 4.66511 154.196 4.2857C154.311 3.98612 154.342 3.66078 154.285 3.34494C154.177 3.01587 153.879 2.89585 153.561 2.71776C153.387 2.63245 153.234 2.50789 153.116 2.35385C153.024 2.24373 152.958 2.1137 152.925 1.97398C152.891 1.83425 152.89 1.68863 152.923 1.54858C152.954 1.43182 153.007 1.32235 153.081 1.22651C153.154 1.13068 153.246 1.05037 153.351 0.990244C153.456 0.930118 153.571 0.891365 153.691 0.876227C153.811 0.861088 153.933 0.869865 154.049 0.90205C154.92 1.08788 155.354 2.01316 155.245 3.41075C155.207 3.91792 154.789 5.93882 153.043 6.04722L153.035 5.7104ZM164.889 22.8416C163.341 22.8416 161.846 22.7603 160.243 21.7653V18.0333H160.731C160.813 20.8904 162.775 21.9047 165.149 21.9047C167.816 21.9047 169.218 20.178 169.218 18.5636C169.218 16.4885 167.975 15.2497 165.176 13.4727C161.455 11.1498 160.487 9.37667 160.487 7.46417C160.487 4.75415 162.59 2.66743 165.958 2.66743C167.418 2.63821 168.868 2.91379 170.216 3.47657V6.57373H169.732C169.656 6.00037 169.483 5.44406 169.221 4.92837C169.059 4.66123 168.281 3.554 165.664 3.554C163.643 3.554 162.179 4.84706 162.179 6.68214C162.179 8.40493 163.499 9.48507 166.546 11.5021C169.535 13.4959 170.991 15.4355 171.049 17.4835C171.033 20.6504 168.579 22.8416 164.889 22.8416ZM187.216 21.6802V17.65H187.766C188.01 21.0181 190.27 22.0402 192.965 22.0402C196.062 22.0402 197.762 20.0193 197.762 17.9713C197.762 15.602 196.213 14.1463 193.077 12.1641C188.819 9.4541 187.797 7.36738 187.797 5.40068C187.785 2.2648 190.158 0 194.196 0C195.778 0.0669302 197.342 0.357597 198.842 0.863335V4.2044H198.304C198.224 3.5791 198.023 2.97543 197.711 2.4274C197.495 2.07897 196.55 0.782034 193.538 0.782034C191.138 0.782034 189.388 2.33062 189.388 4.49863C189.388 6.57373 190.979 7.8126 194.452 10.1316C197.847 12.3964 199.516 14.576 199.516 16.8679C199.516 22.5551 193.832 22.9035 192.431 22.9035C189.02 22.9074 187.216 21.6802 187.216 21.6802ZM217.677 19.1289L217.622 22.5783H204.61V22.0944C205.958 22.0673 206.519 21.7421 206.519 19.2373V5.25357C206.519 4.0147 205.687 3.55787 204.231 3.55787V3.04684C205.307 3.12814 206.817 3.18234 208.219 3.18234C209.295 3.18234 212.044 3.18234 213.77 3.15524C214.308 3.15524 216.949 3.07394 216.949 3.04684L216.895 6.36081H216.414C216.306 4.3128 215.094 4.1502 212.725 4.1502C212.725 4.1502 209.79 4.1231 208.954 4.1231C208.687 4.1231 208.656 4.2044 208.656 4.39023V11.4208C208.656 11.5563 208.656 11.6918 208.819 11.6918H213.426C214.289 11.6918 214.61 11.3976 214.773 10.6155H215.284V14.7386H214.773C214.719 13.8211 214.692 12.9616 213.224 12.8029C212.45 12.7216 209.264 12.6674 208.83 12.6674C208.805 12.6643 208.779 12.667 208.754 12.6755C208.73 12.6839 208.707 12.6978 208.689 12.7161C208.671 12.7343 208.657 12.7565 208.649 12.781C208.64 12.8054 208.637 12.8314 208.641 12.8571V20.2903C208.695 21.6376 208.722 21.6376 212.063 21.6376C213.143 21.6376 215.512 21.6105 216.078 21.3395C216.852 20.9523 217.104 20.2632 217.185 19.1289H217.677ZM238.528 18.9972C237.533 21.2891 235.268 22.8687 231.711 22.8687C225.567 22.8687 221.796 18.6411 221.796 12.8029C221.796 7.35964 225.621 2.67131 232.059 2.67131C234.042 2.68967 236.002 3.09744 237.827 3.87146C238.122 3.97986 238.215 4.06116 238.215 4.32829L238.025 8.26169H237.595C237.568 7.15833 237.324 5.83816 236.465 5.13742C235.28 4.16569 233.906 3.65466 231.641 3.65466C226.442 3.65466 224.123 7.58806 224.123 12.3035C224.123 17.0189 226.654 21.866 231.962 21.866C234.955 21.866 236.922 20.7355 237.944 18.823C238.164 18.3933 238.242 18.3391 238.482 18.3933C238.722 18.4475 238.718 18.583 238.528 18.9972ZM260.053 22.5783H257.816C255.106 22.5783 254.126 20.7471 252.671 18.4281C251.432 16.4924 250.162 13.7398 248.439 13.6314L247.254 13.5501C247.119 13.5501 247.065 13.5772 247.065 13.794V18.8579C247.065 21.9008 247.607 22.0905 249.624 22.0905V22.5745H243.042V22.1138C244.591 22.0325 244.932 21.8466 244.932 18.8811V5.30003C244.932 3.89856 244.095 3.52303 242.667 3.52303V3.03909H249.457C253.12 3.03909 255.601 4.68446 255.601 7.83583C255.601 10.3949 253.499 12.5513 251.234 13.3062C253.17 14.034 254.765 18.4514 256.383 20.1471C258.002 21.8428 258.671 22.0828 260.05 22.0828V22.5745L260.053 22.5783ZM249.573 12.8997C251.943 12.8997 253.445 11.1227 253.445 8.40106C253.445 5.51683 251.691 3.87533 248.997 3.87533C247.541 3.87533 247.084 3.90243 247.084 4.33216V12.3074C247.084 12.5745 247.111 12.6558 247.541 12.7642C248.216 12.8462 248.894 12.894 249.573 12.9074V12.8997ZM276.147 19.1289L276.093 22.5783H263.081V22.0944C264.428 22.0673 264.993 21.7421 264.993 19.2373V5.25357C264.993 4.0147 264.157 3.55787 262.702 3.55787V3.04684C263.778 3.12814 265.288 3.18234 266.689 3.18234C267.765 3.18234 270.514 3.18234 272.241 3.15524C272.779 3.15524 275.419 3.07394 275.419 3.04684L275.365 6.36081H274.873C274.765 4.3128 273.549 4.1502 271.18 4.1502C271.18 4.1502 268.246 4.1231 267.405 4.1231C267.138 4.1231 267.111 4.2044 267.111 4.39023V11.4208C267.111 11.5563 267.111 11.6918 267.27 11.6918H271.877C272.74 11.6918 273.062 11.3976 273.224 10.6155H273.735V14.7386H273.224C273.17 13.8211 273.143 12.9616 271.676 12.8029C270.901 12.7216 267.715 12.6674 267.285 12.6674C267.26 12.6643 267.234 12.667 267.209 12.6755C267.185 12.6839 267.163 12.6978 267.144 12.7161C267.126 12.7343 267.112 12.7565 267.104 12.781C267.095 12.8054 267.093 12.8314 267.096 12.8571V20.2903C267.15 21.6376 267.177 21.6376 270.518 21.6376C271.598 21.6376 273.968 21.6105 274.533 21.3395C275.307 20.9523 275.559 20.2632 275.636 19.1289H276.147ZM295.915 6.2795H295.454C295.295 4.76964 295.187 4.2315 292.791 4.2315H289.047V18.7301C289.047 21.7731 289.368 22.0983 291.552 22.0983V22.5822H284.87V22.1215C286.538 22.1215 286.755 21.3472 286.755 19.2915V4.2315H283.549C280.963 4.2315 280.398 4.3128 280.317 6.2795H279.833L279.721 2.99264C279.721 2.99264 282.365 3.15524 283.522 3.15524H292.427C293.614 3.18158 294.802 3.13633 295.984 3.01974L296.012 3.04684L295.915 6.2795Z" fill="#221D1D"/>
</svg>
